...Download...Seed...Enjoy...
 
http://imageshack.us/a/img840/9616/fwfd.jpg

A fireman takes an unexpected course of action when a man whom he's been ordered to testify against, after being held up at a local convenience store, threatens him.

Complete name: Fire.with.Fire.2012.Brrip.Xvid.Ac3 Team MG.mkv
Format : Matroska
Format version : Version 2
File size: 425 MiB
Duration : 1h 37mn
Overall bit rate : 610 Kbps
Movie name : Avidemux
Writing application: Lavf52.78.3
Writing library: Lavf52.78.3

Video
ID : 1
Format : AVC
Format/Info: Advanced Video Codec
Format profile : High@L3.0
Format settings, CABAC : Yes
Format settings, ReFrames: 3 frames
Codec ID : V_MPEG4/ISO/AVC
Duration : 1h 37mn
Bit rate : 512 Kbps
Width: 720 pixels
Height : 304 pixels
Display aspect ratio : 2.35:1
Frame rate mode: Constant
Frame rate : 23.976 fps
Color space: YUV
Chroma subsampling : 4:2:0
Bit depth: 8 bits
Scan type: Progressive
Bits/(Pixel*Frame) : 0.098
Stream size: 350 MiB (82%)
Writing library: x264 core 112
Encoding settings: cabac=1 / ref=3 / deblock=1:0:0 / analyse=0x3:0x113 / me=hex / subme=7 / psy=1 / psy_rd=1.00:0.00 / mixed_ref=1 / me_range=16 / chroma_me=1 / trellis=1 / 8x8dct=1 / cqm=0 / deadzone=21,11 / fast_pskip=1 / chroma_qp_offset=-2 / threads=12 / sliced_threads=0 / nr=0 / decimate=1 / interlaced=0 / constrained_intra=0 / bframes=3 / b_pyramid=1 / b_adapt=1 / b_bias=0 / direct=1 / weightb=1 / open_gop=0 / weightp=2 / keyint=250 / keyint_min=23 / scenecut=40 / intra_refresh=0 / rc_lookahead=40 / rc=abr / mbtree=1 / bitrate=512 / ratetol=1.0 / qcomp=0.60 / qpmin=10 / qpmax=51 / qpstep=4 / ip_ratio=1.40 / aq=1:1.00
Default: Yes
Forced : No

Audio
ID : 2
Format : AC-3
Format/Info: Audio Coding 3
Mode extension : CM (complete main)
Format settings, Endianness: Big
Codec ID : A_AC3
Duration : 1h 37mn
Bit rate mode: Constant
Bit rate : 96.0 Kbps
Channel(s) : 6 channels
Channel positions: Front: L C R, Side: L R, LFE
Sampling rate: 48.0 KHz
Bit depth: 16 bits
Compression mode : Lossy
Delay relative to video: -42ms
Stream size: 67.0 MiB (16%)
Default: Yes
Forced : No
 
http://imgur.com/2bEeC.jpg